<?xml version="1.0" encoding="utf-8"?>
<!-- Generator: Adobe Illustrator 20.0.0, SVG Export Plug-In . SVG Version: 6.00 Build 0)  -->
<svg version="1.1" id="Gruppe_1" xmlns="http://www.w3.org/2000/svg" xmlns:xlink="http://www.w3.org/1999/xlink" x="0px" y="0px"
	 viewBox="0 0 28 36" style="enable-background:new 0 0 28 36;" xml:space="preserve">
<style type="text/css">
	.st0{display:none;}
	.st1{display:inline;}
	.st2{fill:#C60246;}
	.st3{fill:#DB0720;}
	.st4{fill:#005CA9;}
	.st5{fill:#F9B000;}
</style>
<g id="Mesago" class="st0">
	<g class="st1">
		<path class="st2" d="M-25.9,16.7c0-1.2,0-2.3-0.1-3.2h2.9l0.1,1.7c0.8-1.3,1.9-1.9,3.5-1.9c1.7,0,2.8,0.7,3.3,2.1
			c0.8-1.4,2.1-2.1,3.7-2.1c2.8,0,3.8,1.7,3.8,4.5v7.6h-2.9V18c0-1.6-0.3-2.8-1.9-2.8c-1.6,0-2.2,1.3-2.2,3v7.1h-2.9V18
			c0-1.6-0.3-2.8-1.9-2.8c-1.6,0-2.3,1.6-2.3,3.1v7h-2.9L-25.9,16.7L-25.9,16.7z"/>
		<path class="st2" d="M-6.5,19.6c0-3.8,1.5-6.4,5.4-6.4c3.9,0,5.1,2.5,5.1,6.6h-7.6c0.1,2.8,0.8,4,2.5,4c1.4,0,2.1-0.8,2.3-2.4
			l2.8,0.3c-0.5,2.7-2.2,3.8-5.1,3.8C-5,25.6-6.5,23.4-6.5,19.6z M-3.6,18.3h4.7C1.2,16.6,0.6,15-1.1,15C-2.7,15-3.4,16.2-3.6,18.3z
			"/>
		<path class="st2" d="M6,22l2.9-0.3c0,1.4,0.6,2.3,1.9,2.3c1,0,1.9-0.6,1.9-1.7c0-1.2-1-1.6-2.7-2.1c-2.3-0.8-3.8-1.4-3.8-3.5
			c0-2.5,2.4-3.4,4.7-3.4c2.7,0,4.3,1,4.5,3.3l-2.8,0.3c0-1.4-0.6-1.9-1.8-1.9c-0.9,0-1.8,0.5-1.8,1.4c0,0.9,1,1.4,2.5,1.9
			c2.4,0.8,4.1,1.3,4.1,3.6c0,2.7-2.3,3.7-4.9,3.7C7.8,25.6,6.1,24.4,6,22z"/>
		<path class="st2" d="M17.4,22c0-3.5,3.3-4.1,6.5-4.1h0.6v-0.6c0-1.6-0.4-2.5-1.9-2.5c-1.2,0-1.8,0.6-1.9,1.9L18,16.5
			c0.1-2.3,2.1-3.2,4.7-3.2c3.2,0,4.7,1,4.7,4.3v3.9c0,1.5,0.1,2.9,0.2,3.9h-2.8c-0.1-0.3-0.1-1.2-0.1-1.6c-0.8,1.2-1.9,1.9-3.6,1.9
			C18.9,25.6,17.4,24.3,17.4,22z M24.6,19.6h-0.8c-2.2,0-3.5,0.7-3.5,2.3c0,1.2,0.8,2,1.9,2c1.9,0,2.5-1.6,2.5-3.7L24.6,19.6z"/>
		<path class="st2" d="M30.3,26.7l2.9-0.3c0,1.3,0.7,1.9,2,1.9c1.8,0,2.4-1.1,2.4-3.6v-1.3c-0.8,1.2-1.9,1.8-3.5,1.8
			c-3.2,0-4.3-2.6-4.3-5.8c0-3.4,1.2-6.1,4.5-6.1c1.6,0,2.7,0.6,3.4,1.9l0.1-1.6h2.9c-0.1,1.2-0.1,2.5-0.1,3.2v7.3
			c0,3.9-1.6,5.8-5.4,5.8C32.2,30,30.5,29.1,30.3,26.7z M37.6,19.2c0-2.1-0.6-4.1-2.5-4.1c-1.9,0-2.4,2.1-2.4,4.3s0.5,4,2.4,4
			C37.2,23.5,37.6,21.4,37.6,19.2z"/>
		<path class="st2" d="M42.9,19.4c0-3.8,1.8-6.2,5.6-6.2c4,0,5.5,2.3,5.5,6.1c0,3.7-1.4,6.3-5.5,6.3C44.5,25.6,42.9,23.3,42.9,19.4z
			 M51,19.4c0-2.3-0.5-4.3-2.5-4.3c-2.1,0-2.5,2.1-2.5,4.3c0,2.5,0.5,4.4,2.5,4.4C50.4,23.8,51,22,51,19.4z"/>
	</g>
</g>
<g id="MF">
	<g>
		<polygon class="st3" points="27.8,36 11.3,36 11.3,19.5 27.8,19.5 		"/>
		<polygon class="st4" points="9.5,21.5 0.2,17.2 4.5,7.9 13.8,12.2 		"/>
		<polygon class="st5" points="16.2,13.1 12.1,7.9 17.3,4 21.2,9 		"/>
		<polygon class="st3" points="13.4,4.6 9.5,4 10.2,0 14.1,0.7 		"/>
	</g>
</g>
</svg>
