<?xml version="1.0" encoding="utf-8"?>
<!-- Generator: Adobe Illustrator 21.0.2, SVG Export Plug-In . SVG Version: 6.00 Build 0)  -->
<svg version="1.1" id="Layer_1" xmlns="http://www.w3.org/2000/svg" xmlns:xlink="http://www.w3.org/1999/xlink" x="0px" y="0px"
	 viewBox="0 0 227 47.1" style="enable-background:new 0 0 227 47.1;" xml:space="preserve">
<style type="text/css">
	.st0{fill-rule:evenodd;clip-rule:evenodd;fill:#A6C545;}
	.st1{fill-rule:evenodd;clip-rule:evenodd;fill:#7D4892;}
</style>
<polygon class="st0" points="68,8 63.7,8 63.7,20.8 57.6,20.8 57.6,8 50.7,8 52.9,4.2 70.1,4.2 "/>
<path class="st0" d="M85.8,20.8L79,11.1h4.4c0.4,0,0.7-0.1,0.8-0.5c0.2-0.3,0.3-0.7,0.3-1.1c0-0.4-0.1-0.7-0.3-1.1
	C84.1,8.2,83.8,8,83.4,8h-5.6v12.8h-6.1V4.2h16.6c0.4,0,0.9,0.1,1.2,0.4c0.4,0.3,0.7,0.6,1,1.1c0.2,0.4,0.5,1,0.6,1.6
	c0.2,0.6,0.2,1.3,0.2,2s0,1.4-0.2,2c-0.1,0.6-0.4,1.2-0.6,1.6c-0.3,0.4-0.6,0.8-1,1.1c-0.3,0.2-0.8,0.3-1.2,0.3h-1l4.7,6.5H85.8z"/>
<path class="st0" d="M95.3,4.2h17.5v16.7h-6.1v-6.5h-7.5l1.9-3.3h5.6V8h-6.8c-0.6,0-0.9,0.6-0.9,1.8v11h-6.1V8.3
	c0-1.2,0.2-2.1,0.7-2.9C94.1,4.6,94.6,4.2,95.3,4.2"/>
<polygon class="st0" points="114.4,4.2 120.2,4.2 128.2,14.3 128.2,4.2 134.4,4.2 134.4,20.8 128.5,20.8 120.4,10.4 120.4,20.8 
	114.4,20.8 "/>
<path class="st0" d="M136.8,5.6c0.5-0.9,1.3-1.4,2.3-1.4h15.4L152.3,8h-9.3c-0.3,0-0.6,0.2-0.7,0.5c-0.1,0.3-0.2,0.7-0.2,1.1
	c0,0.4,0.1,0.7,0.3,1.1c0.1,0.3,0.4,0.5,0.7,0.5h9.9c0.9,0,1.6,0.4,2.1,1.4c0.6,0.9,0.8,2,0.8,3.5c0,1.4-0.2,2.7-0.8,3.5
	c-0.5,0.9-1.3,1.4-2.1,1.4h-16.9l2-3.7h11.2c0.3,0,0.4-0.1,0.6-0.4c0.1-0.3,0.2-0.6,0.2-1c0-0.3-0.1-0.6-0.2-1
	c-0.1-0.3-0.3-0.4-0.5-0.4h-10.3c-0.4,0-0.8-0.1-1.2-0.3c-0.3-0.2-0.7-0.5-1-1c-0.3-0.4-0.5-1-0.7-1.6c-0.1-0.6-0.2-1.3-0.2-2.1
	C136,7.7,136.3,6.5,136.8,5.6"/>
<polygon class="st1" points="157.5,4.2 163.7,4.2 163.7,17.1 176.4,17.1 174.4,20.8 157.5,20.8 "/>
<rect x="178" y="4.2" class="st1" width="6.1" height="16.7"/>
<polygon class="st1" points="185.6,4.2 191.5,4.2 199.5,14.3 199.5,4.2 205.6,4.2 205.6,20.8 199.7,20.8 191.7,10.4 191.7,20.8 
	185.6,20.8 "/>
<path class="st1" d="M213.3,4.2v16.7h-6.1V4.2H213.3z M221,4.1v4.7c0,0.4,0,0.8-0.2,1.1c-0.1,0.3-0.3,0.5-0.4,0.7
	c-0.2,0.2-0.4,0.3-0.5,0.4c-0.1,0.1-0.3,0.1-0.4,0.1h-4l-1.9,3.2h5.9c0.5,0,0.9,0.2,1.2,0.6c0.3,0.4,0.4,0.9,0.4,1.6v4.3h6.1V18
	c0-0.7-0.1-1.3-0.2-2c-0.1-0.6-0.3-1.2-0.6-1.7c-0.2-0.5-0.5-1-0.9-1.3c-0.3-0.4-0.6-0.6-1-0.8c0.3-0.2,0.7-0.6,1-1
	c0.3-0.3,0.6-0.8,0.8-1.3c0.2-0.5,0.4-1,0.6-1.5c0.2-0.6,0.2-1.2,0.2-1.9V4.1H221z"/>
<rect x="50.6" y="24.3" class="st1" width="176.4" height="5.1"/>
<polygon class="st1" points="56.5,42.8 56.5,34.9 53.6,34.9 53.6,33.8 60.6,33.8 60.6,34.9 57.7,34.9 57.7,42.8 "/>
<path class="st1" d="M64.3,42.8v-6.5h1v1c0.2-0.4,0.5-0.7,0.7-0.9c0.2-0.1,0.4-0.2,0.7-0.2c0.4,0,0.8,0.1,1.1,0.3l-0.4,1
	c-0.2-0.1-0.5-0.2-0.8-0.2c-0.2,0-0.4,0.1-0.6,0.2c-0.1,0.1-0.3,0.3-0.4,0.6c-0.1,0.4-0.2,0.8-0.2,1.3v3.4H64.3z"/>
<path class="st1" d="M75.7,42c-0.4,0.3-0.8,0.6-1.2,0.7c-0.4,0.1-0.8,0.2-1.2,0.2c-0.7,0-1.3-0.2-1.6-0.5c-0.4-0.3-0.5-0.8-0.5-1.3
	c0-0.3,0-0.6,0.2-0.9c0.1-0.3,0.3-0.5,0.6-0.7c0.2-0.1,0.5-0.2,0.8-0.3c0.2,0,0.5-0.1,1-0.1c0.9-0.1,1.5-0.2,1.9-0.4
	c0-0.1,0-0.2,0-0.3c0-0.4-0.1-0.8-0.3-0.9c-0.3-0.2-0.7-0.4-1.3-0.4c-0.5,0-0.9,0.1-1.1,0.3c-0.2,0.1-0.4,0.5-0.5,0.9l-1.1-0.1
	c0.1-0.4,0.2-0.8,0.4-1.1c0.2-0.3,0.6-0.5,1-0.6c0.4-0.1,0.9-0.2,1.4-0.2c0.6,0,1,0,1.4,0.2c0.3,0.1,0.6,0.3,0.7,0.5
	c0.2,0.2,0.3,0.4,0.3,0.8c0,0.2,0,0.5,0,1v1.4c0,1,0,1.6,0.1,1.9s0.1,0.5,0.2,0.8h-1.1C75.8,42.5,75.7,42.3,75.7,42 M75.6,39.5
	c-0.4,0.1-1,0.3-1.8,0.4c-0.4,0-0.8,0.1-1,0.2c-0.1,0-0.3,0.2-0.4,0.3c-0.1,0.1-0.2,0.3-0.2,0.5c0,0.3,0.1,0.5,0.3,0.7
	c0.2,0.2,0.6,0.3,1,0.3c0.4,0,0.8-0.1,1.2-0.3c0.3-0.1,0.6-0.4,0.7-0.7c0.1-0.2,0.1-0.6,0.1-1.1L75.6,39.5z"/>
<path class="st1" d="M81.4,42.8v-6.5h1v0.9c0.4-0.7,1.1-1.1,2-1.1c0.4,0,0.7,0,1.1,0.2c0.3,0.1,0.6,0.3,0.7,0.6
	c0.1,0.2,0.3,0.5,0.3,0.8c0,0.2,0,0.5,0,1.1v4h-1.1v-3.9c0-0.5,0-0.8-0.1-1c0-0.2-0.2-0.4-0.4-0.5c-0.2-0.1-0.5-0.2-0.8-0.2
	c-0.4,0-0.9,0.1-1.2,0.4c-0.3,0.3-0.5,0.9-0.5,1.7v3.5H81.4z"/>
<path class="st1" d="M90.9,40.8l1.1-0.2c0.1,0.4,0.2,0.8,0.5,1c0.2,0.2,0.6,0.3,1.2,0.3c0.5,0,0.9-0.1,1.1-0.3
	c0.2-0.2,0.3-0.4,0.3-0.7c0-0.2-0.1-0.4-0.3-0.6c-0.1-0.1-0.5-0.2-1.1-0.4c-0.8-0.2-1.4-0.4-1.7-0.5c-0.3-0.1-0.5-0.3-0.7-0.6
	c-0.2-0.3-0.2-0.6-0.2-0.9s0-0.6,0.2-0.8c0.1-0.2,0.3-0.4,0.5-0.6c0.1-0.1,0.4-0.2,0.7-0.3c0.3-0.1,0.6-0.1,1-0.1
	c0.5,0,0.9,0.1,1.3,0.2c0.4,0.1,0.7,0.3,0.9,0.6c0.2,0.2,0.3,0.6,0.4,1l-1.1,0.1c0-0.3-0.2-0.6-0.4-0.8c-0.2-0.2-0.6-0.3-1-0.3
	c-0.5,0-0.8,0-1.1,0.2c-0.2,0.1-0.3,0.3-0.3,0.6c0,0.1,0,0.3,0.1,0.4c0.1,0.1,0.2,0.2,0.4,0.3c0.1,0,0.4,0.1,1,0.3
	c0.8,0.2,1.3,0.4,1.6,0.5c0.3,0.1,0.6,0.3,0.7,0.6c0.2,0.2,0.2,0.6,0.2,1c0,0.3-0.1,0.7-0.3,1c-0.2,0.3-0.5,0.6-0.9,0.7
	c-0.4,0.2-0.9,0.3-1.4,0.3c-0.8,0-1.5-0.2-1.9-0.5C91.3,42.1,91,41.5,90.9,40.8"/>
<rect x="100.5" y="33.8" class="st1" width="1.1" height="8.9"/>
<path class="st1" d="M110.5,42c-0.4,0.3-0.7,0.6-1.1,0.7c-0.4,0.1-0.8,0.2-1.2,0.2c-0.7,0-1.3-0.2-1.6-0.5c-0.4-0.3-0.6-0.8-0.6-1.3
	c0-0.3,0.1-0.6,0.2-0.9c0.1-0.3,0.3-0.5,0.5-0.7c0.2-0.1,0.5-0.2,0.8-0.3c0.2,0,0.5-0.1,1-0.1c0.9-0.1,1.5-0.2,1.9-0.4
	c0-0.1,0-0.2,0-0.3c0-0.4-0.1-0.8-0.3-0.9c-0.3-0.2-0.7-0.4-1.3-0.4c-0.5,0-0.9,0.1-1.1,0.3c-0.2,0.1-0.4,0.5-0.5,0.9l-1.1-0.1
	c0.1-0.4,0.3-0.8,0.5-1.1c0.2-0.3,0.5-0.5,1-0.6c0.4-0.1,0.9-0.2,1.4-0.2s1,0,1.3,0.2c0.3,0.1,0.6,0.3,0.8,0.5
	c0.1,0.2,0.3,0.4,0.3,0.8c0,0.2,0,0.5,0,1v1.4c0,1,0,1.6,0,1.9c0,0.3,0.1,0.5,0.3,0.8h-1.1C110.7,42.5,110.6,42.3,110.5,42
	 M110.5,39.5c-0.4,0.1-1,0.3-1.8,0.4c-0.4,0-0.8,0.1-1,0.2c-0.2,0-0.3,0.2-0.4,0.3c-0.1,0.1-0.1,0.3-0.1,0.5c0,0.3,0.1,0.5,0.3,0.7
	c0.2,0.2,0.5,0.3,1,0.3c0.4,0,0.8-0.1,1.1-0.3c0.3-0.1,0.6-0.4,0.7-0.7c0.1-0.2,0.2-0.6,0.2-1.1V39.5z"/>
<path class="st1" d="M118.6,41.8l0.1,1c-0.3,0-0.6,0.1-0.8,0.1c-0.4,0-0.7-0.1-0.9-0.2c-0.2-0.1-0.3-0.3-0.4-0.5
	c-0.1-0.2-0.1-0.6-0.1-1.3v-3.7h-0.8v-0.9h0.8v-1.6l1.1-0.7v2.3h1.1v0.9h-1.1v3.8c0,0.3,0,0.5,0.1,0.6c0,0.1,0.1,0.2,0.1,0.2
	c0.1,0,0.2,0,0.4,0C118.3,41.8,118.4,41.8,118.6,41.8"/>
<path class="st1" d="M122.8,35.1v-1.3h1.1v1.3H122.8z M122.8,42.8v-6.5h1.1v6.5H122.8z"/>
<path class="st1" d="M128.2,39.5c0-1.2,0.3-2.1,1-2.7c0.6-0.5,1.3-0.7,2-0.7c0.9,0,1.6,0.3,2.2,0.9c0.5,0.6,0.8,1.4,0.8,2.4
	c0,0.8-0.1,1.5-0.4,2c-0.2,0.5-0.6,0.8-1.1,1.1c-0.5,0.2-1,0.4-1.5,0.4c-0.9,0-1.6-0.3-2.2-0.9C128.5,41.5,128.2,40.7,128.2,39.5
	 M129.3,39.5c0,0.8,0.2,1.4,0.5,1.9c0.4,0.4,0.8,0.6,1.4,0.6c0.5,0,1-0.2,1.4-0.6c0.3-0.4,0.5-1,0.5-1.9c0-0.8-0.2-1.4-0.5-1.8
	c-0.4-0.4-0.8-0.6-1.4-0.6c-0.5,0-1,0.2-1.4,0.6C129.5,38.1,129.3,38.7,129.3,39.5z"/>
<path class="st1" d="M138.5,42.8v-6.5h1v0.9c0.5-0.7,1.2-1.1,2-1.1c0.4,0,0.7,0,1.1,0.2c0.3,0.1,0.6,0.3,0.7,0.6
	c0.2,0.2,0.3,0.5,0.3,0.8c0,0.2,0.1,0.5,0.1,1.1v4h-1.1v-3.9c0-0.5,0-0.8-0.1-1c-0.1-0.2-0.2-0.4-0.5-0.5c-0.2-0.1-0.4-0.2-0.7-0.2
	c-0.5,0-0.9,0.1-1.2,0.4c-0.3,0.3-0.5,0.9-0.5,1.7v3.5H138.5z"/>
<path class="st1" d="M161,40.8l1.1-0.2c0,0.4,0.2,0.8,0.5,1c0.3,0.2,0.7,0.3,1.2,0.3c0.5,0,0.9-0.1,1.1-0.3c0.2-0.2,0.4-0.4,0.4-0.7
	c0-0.2-0.1-0.4-0.3-0.6c-0.1-0.1-0.5-0.2-1.1-0.4c-0.8-0.2-1.4-0.4-1.6-0.5c-0.3-0.1-0.6-0.3-0.7-0.6c-0.1-0.3-0.2-0.6-0.2-0.9
	s0-0.6,0.2-0.8c0.1-0.2,0.3-0.4,0.5-0.6c0.2-0.1,0.4-0.2,0.7-0.3c0.3-0.1,0.6-0.1,0.9-0.1c0.5,0,1,0.1,1.4,0.2
	c0.4,0.1,0.6,0.3,0.8,0.6c0.2,0.2,0.3,0.6,0.4,1l-1.1,0.1c0-0.3-0.2-0.6-0.4-0.8c-0.2-0.2-0.5-0.3-1-0.3c-0.5,0-0.9,0-1.1,0.2
	c-0.2,0.1-0.3,0.3-0.3,0.6c0,0.1,0,0.3,0.1,0.4c0.1,0.1,0.2,0.2,0.4,0.3c0.1,0,0.4,0.1,1,0.3c0.8,0.2,1.4,0.4,1.6,0.5
	c0.3,0.1,0.5,0.3,0.7,0.6c0.2,0.2,0.3,0.6,0.3,1c0,0.3-0.1,0.7-0.3,1c-0.2,0.3-0.5,0.6-0.9,0.7c-0.4,0.2-0.8,0.3-1.4,0.3
	c-0.8,0-1.4-0.2-1.9-0.5C161.4,42.1,161.1,41.5,161,40.8"/>
<path class="st1" d="M175,40.7l1.2,0.2c-0.2,0.6-0.5,1.2-1,1.5c-0.5,0.3-1.1,0.5-1.8,0.5c-0.9,0-1.6-0.3-2.2-0.9
	c-0.5-0.6-0.8-1.4-0.8-2.5c0-1.1,0.3-1.9,0.8-2.5c0.6-0.6,1.3-0.9,2.2-0.9c0.9,0,1.5,0.3,2.1,0.9c0.5,0.6,0.8,1.4,0.8,2.5
	c0,0,0,0.1,0,0.3h-4.8c0,0.7,0.2,1.3,0.6,1.6c0.3,0.3,0.8,0.5,1.3,0.5c0.4,0,0.8-0.1,1-0.3C174.6,41.5,174.9,41.1,175,40.7
	 M171.5,38.9h3.6c0-0.5-0.2-1-0.4-1.2c-0.3-0.4-0.8-0.6-1.4-0.6c-0.5,0-0.9,0.1-1.3,0.5C171.7,37.9,171.5,38.3,171.5,38.9z"/>
<path class="st1" d="M180.6,42.8v-6.5h1v1c0.2-0.4,0.5-0.7,0.7-0.9c0.2-0.1,0.4-0.2,0.7-0.2c0.4,0,0.7,0.1,1.1,0.3l-0.4,1
	c-0.2-0.1-0.5-0.2-0.8-0.2c-0.2,0-0.4,0.1-0.6,0.2c-0.1,0.1-0.3,0.3-0.4,0.6c-0.1,0.4-0.2,0.8-0.2,1.3v3.4H180.6z"/>
<path class="st1" d="M189.5,42.8l-2.4-6.5h1.2l1.4,3.9c0.1,0.4,0.3,0.9,0.4,1.3c0.1-0.3,0.2-0.7,0.4-1.2l1.4-4h1.1l-2.4,6.5H189.5z"
	/>
<path class="st1" d="M197,35.1v-1.3h1.1v1.3H197z M197,42.8v-6.5h1.1v6.5H197z"/>
<path class="st1" d="M207,40.4l1.1,0.1c-0.1,0.7-0.4,1.3-0.9,1.7c-0.5,0.4-1.1,0.6-1.8,0.6c-0.9,0-1.6-0.3-2.1-0.9
	c-0.5-0.6-0.8-1.4-0.8-2.5c0-0.7,0.1-1.3,0.3-1.8c0.2-0.5,0.6-0.9,1.1-1.2c0.4-0.2,1-0.4,1.5-0.4c0.7,0,1.3,0.2,1.7,0.5
	c0.4,0.3,0.7,0.9,0.8,1.5l-1.1,0.2c-0.1-0.4-0.2-0.8-0.5-1c-0.2-0.2-0.5-0.3-0.9-0.3c-0.5,0-1,0.2-1.3,0.6c-0.3,0.4-0.5,1-0.5,1.9
	c0,0.9,0.1,1.5,0.5,1.9c0.3,0.4,0.8,0.6,1.3,0.6c0.4,0,0.8-0.1,1.1-0.4C206.7,41.4,206.9,40.9,207,40.4"/>
<path class="st1" d="M216.4,40.7l1.2,0.2c-0.2,0.6-0.5,1.2-1,1.5c-0.5,0.3-1.1,0.5-1.8,0.5c-0.9,0-1.6-0.3-2.2-0.9
	c-0.5-0.6-0.8-1.4-0.8-2.5c0-1.1,0.3-1.9,0.9-2.5c0.5-0.6,1.3-0.9,2.1-0.9c0.9,0,1.5,0.3,2.1,0.9c0.5,0.6,0.8,1.4,0.8,2.5
	c0,0,0,0.1,0,0.3h-4.8c0,0.7,0.2,1.3,0.6,1.6c0.3,0.3,0.8,0.5,1.3,0.5c0.4,0,0.8-0.1,1.1-0.3C216,41.5,216.3,41.1,216.4,40.7
	 M212.9,38.9h3.6c0-0.5-0.2-1-0.4-1.2c-0.3-0.4-0.8-0.6-1.4-0.6c-0.5,0-0.9,0.1-1.3,0.5C213.1,37.9,212.9,38.3,212.9,38.9z"/>
<path class="st1" d="M221.5,40.8l1.1-0.2c0,0.4,0.2,0.8,0.5,1c0.3,0.2,0.7,0.3,1.2,0.3c0.5,0,0.9-0.1,1.1-0.3
	c0.2-0.2,0.4-0.4,0.4-0.7c0-0.2-0.1-0.4-0.3-0.6c-0.1-0.1-0.5-0.2-1.1-0.4c-0.8-0.2-1.4-0.4-1.7-0.5c-0.3-0.1-0.5-0.3-0.7-0.6
	c-0.1-0.3-0.2-0.6-0.2-0.9s0-0.6,0.2-0.8c0.1-0.2,0.3-0.4,0.5-0.6c0.2-0.1,0.4-0.2,0.7-0.3c0.3-0.1,0.6-0.1,1-0.1
	c0.5,0,1,0.1,1.4,0.2c0.3,0.1,0.6,0.3,0.8,0.6c0.2,0.2,0.3,0.6,0.4,1l-1.1,0.1c0-0.3-0.2-0.6-0.4-0.8c-0.2-0.2-0.5-0.3-1-0.3
	c-0.5,0-0.9,0-1.1,0.2c-0.2,0.1-0.3,0.3-0.3,0.6c0,0.1,0,0.3,0.1,0.4c0,0.1,0.2,0.2,0.4,0.3c0.1,0,0.4,0.1,1,0.3
	c0.8,0.2,1.3,0.4,1.6,0.5c0.3,0.1,0.5,0.3,0.7,0.6c0.2,0.2,0.3,0.6,0.3,1c0,0.3-0.1,0.7-0.3,1c-0.2,0.3-0.5,0.6-0.9,0.7
	c-0.4,0.2-0.8,0.3-1.4,0.3c-0.8,0-1.4-0.2-1.9-0.5C222,42.1,221.7,41.5,221.5,40.8"/>
<path class="st1" d="M41.3,20.7C38.7,14.5,31.3,7.7,25,6.4C19.1,5.2,14.2,5.9,9.5,7.2L8.3,0L0,19.5l12.4,4.2l-1.3-7
	c4.2-1.5,7.5-2.3,12.6-2.3C29.2,14.3,38.6,17.7,41.3,20.7"/>
<path class="st0" d="M41.3,27.7l-12.4-4.2l1.3,7c-4.2,1.5-7.5,2.2-12.6,2.3c-5.4,0-14.8-3.4-17.6-6.4c2.6,6.2,10,12.9,16.4,14.2
	c5.8,1.2,10.8,0.5,15.5-0.8l1.2,7.1L41.3,27.7z"/>
</svg>
